<?xml version="1.0" encoding="iso-8859-1"?>
<!-- Generator: Adobe Illustrator 18.0.0, SVG Export Plug-In . SVG Version: 6.00 Build 0)  -->
<!DOCTYPE svg PUBLIC "-//W3C//DTD SVG 1.1//EN" "http://www.w3.org/Graphics/SVG/1.1/DTD/svg11.dtd">
<svg version="1.1" id="_x34_" xmlns="http://www.w3.org/2000/svg" xmlns:xlink="http://www.w3.org/1999/xlink" x="0px" y="0px"
	 viewBox="0 0 512 512" style="enable-background:new 0 0 512 512;" xml:space="preserve">
<g>
	<g>
		<g>
			<path style="fill:#E7E0DB;" d="M173.694,41.66v-0.061c-0.245-2.27-0.675-4.418-1.411-6.565c-0.246-0.736-0.491-1.472-0.798-2.148
				c-0.307-0.736-0.614-1.411-0.982-2.086c-0.307-0.613-0.613-1.227-0.982-1.779c-0.307-0.552-0.675-1.105-1.043-1.595
				c-0.491-0.736-1.104-1.472-1.718-2.209c-0.613-0.797-1.289-1.534-2.025-2.209c-1.963-1.902-4.172-3.497-6.626-4.785
				c-0.061-0.061-0.123-0.061-0.184-0.123c-0.981-0.491-2.025-0.982-3.068-1.35c-0.92-0.368-1.841-0.675-2.822-0.92
				c-0.246-0.123-0.491-0.184-0.798-0.245c-1.043-0.246-2.086-0.429-3.129-0.552c0,0-0.061,0-0.123,0
				c-0.184-0.061-0.43-0.061-0.675-0.061h-0.307c-0.859-0.122-1.718-0.184-2.577-0.184h-115.1c-4.909,0-9.51,1.227-13.559,3.374
				C9.08,21.72,3.865,27.794,1.472,35.033C0.552,37.917,0,40.924,0,44.114v136.329c0.061,44.482,61.354,42.335,69.821,70.925
				c3.681,12.455,3.743,35.831,3.313,54.851c-0.061,5.583-0.184,10.798-0.245,15.277c-0.061,2.27-0.123,4.479-0.061,6.319
				c-0.061,0.491-0.061,0.983-0.061,1.473c0,7.485-0.122,14.295-0.429,20.431c-2.515,53.194-14.48,61.784-14.05,102.461
				c0.245,22.702,4.847,37.672,10.614,46.937c1.043,1.717,2.148,3.19,3.252,4.54c1.473,1.779,2.945,3.19,4.479,4.356
				c1.166,0.92,2.27,1.595,3.374,2.209C82.46,511.448,84.73,512,86.755,512c0.062,0,0.062,0,0.122-0.061
				c1.043,0,2.148-0.184,3.313-0.491c1.166-0.245,2.331-0.736,3.559-1.472c0.245-0.122,0.491-0.306,0.736-0.429
				c0.798-0.368,1.534-0.92,2.332-1.534c1.472-1.105,2.945-2.516,4.417-4.294h0.061c0-0.061,0.062-0.061,0.062-0.061
				c7.178-8.591,13.498-24.603,13.743-51.538c0.491-40.616-11.473-49.205-13.927-102.461c-0.307-4.847-0.429-10.123-0.429-15.829
				c-0.061-1.473-0.061-3.006-0.061-4.54c0-0.491,0-0.982,0.061-1.473c-0.061-1.84-0.123-3.987-0.184-6.319l0.061-0.061
				c-0.061-0.245-0.061-0.552-0.061-0.798s0-0.552-0.061-0.859c0-1.227-0.061-2.516-0.123-3.865
				c-0.245-11.964-0.613-27.425,0.061-41.046c0.061-1.288,0.184-2.638,0.245-3.865c0.184-2.7,0.429-5.276,0.737-7.731
				c0.491-4.54,1.227-8.59,2.209-11.903c6.381-21.597,42.887-25.646,60.372-45.463c1.841-2.087,3.497-4.356,4.847-6.872
				c0.736-1.288,1.35-2.638,1.902-3.987c0.736-1.841,1.35-3.804,1.718-5.951c0.184-0.368,0.246-0.737,0.246-1.166
				c0.184-0.982,0.307-2.024,0.429-3.068c0.184-0.921,0.368-1.902,0.491-2.884c0.061-0.982,0.123-1.963,0.123-2.946V44.052
				C173.755,43.255,173.694,42.457,173.694,41.66z M32.824,172.099c-4.172,0-7.485-4.05-7.301-8.835l2.086-77.061
				c0.061-2.331,2.393-4.233,5.215-4.233c2.822,0,5.154,1.902,5.215,4.233l2.147,77.061
				C40.31,168.049,36.997,172.099,32.824,172.099z M68.839,200.321c-4.172,0-7.424-5.891-7.301-12.884l2.147-112.892
				c0.061-3.436,2.393-6.197,5.154-6.197c2.822,0,5.154,2.761,5.215,6.197l2.147,112.892
				C76.325,194.431,73.073,200.321,68.839,200.321z M104.915,200.321c-4.172,0-7.485-5.891-7.362-12.884l2.147-112.892
				c0.061-3.436,2.393-6.197,5.215-6.197c2.823,0,5.154,2.761,5.215,6.197l2.086,112.892
				C112.401,194.431,109.088,200.321,104.915,200.321z M140.93,172.099c-4.172,0-7.485-4.05-7.301-8.835l2.086-77.061
				c0.061-2.331,2.393-4.233,5.215-4.233c2.822,0,5.154,1.902,5.215,4.233l2.147,77.061
				C148.416,168.049,145.103,172.099,140.93,172.099z"/>
			<g>
				<path style="fill:#454342;" d="M117.677,321.496V482.98c0,0.737-0.061,1.472-0.123,2.148c-0.491,4.846-2.577,9.142-5.767,12.455
					c-0.429,0.429-0.797,0.858-1.288,1.227c-0.43,0.429-0.859,0.797-1.289,1.104c-0.122,0.061-0.184,0.123-0.307,0.184
					c-0.552,0.43-1.104,0.798-1.718,1.165c-0.245,0.184-0.552,0.307-0.797,0.491c-0.368,0.246-0.737,0.368-1.166,0.552
					c-0.246,0.123-0.429,0.184-0.675,0.307c-0.49,0.184-0.981,0.429-1.534,0.552c-0.061,0.061-0.184,0.061-0.307,0.123
					c-0.123,0.061-0.245,0.061-0.368,0.123c-0.307,0.061-0.736,0.184-1.043,0.307h-0.123c-1.595,0.429-3.19,0.613-4.847,0.613H77.49
					c-1.289,0-2.516-0.123-3.743-0.368c-0.552-0.061-1.104-0.184-1.595-0.306c-8.037-2.087-14.234-8.774-15.707-16.995
					c-0.184-1.228-0.307-2.454-0.307-3.682V321.496H117.677z"/>
				<polygon style="fill:#BFBDA3;" points="117.677,327.815 117.677,349.719 116.634,349.719 101.173,349.657 86.877,349.657 
					72.336,349.719 56.139,349.719 56.139,327.815 				"/>
				<circle style="fill:#FFFFFF;" cx="86.886" cy="474.409" r="13.03"/>
			</g>
			<path style="fill:#EFEAE8;" d="M173.755,44.052v5.338H0v-5.276c0-3.19,0.552-6.197,1.472-9.08
				c2.393-7.24,7.608-13.314,14.296-16.872c4.049-2.148,8.651-3.374,13.559-3.374h115.1c0.859,0,1.718,0.061,2.577,0.184h0.307
				c0.245,0,0.491,0,0.675,0.061c0.061,0,0.123,0,0.123,0c1.043,0.123,2.086,0.307,3.129,0.552c0.307,0.061,0.552,0.122,0.798,0.245
				c0.982,0.245,1.902,0.552,2.822,0.92c1.043,0.368,2.086,0.859,3.068,1.35c0.061,0.061,0.123,0.061,0.184,0.123
				c2.454,1.288,4.663,2.883,6.626,4.785c0.736,0.675,1.411,1.411,2.025,2.209c0.614,0.737,1.227,1.473,1.718,2.209
				c0.368,0.491,0.736,1.043,1.043,1.595c0.368,0.552,0.675,1.166,0.982,1.779c0.368,0.675,0.675,1.35,0.982,2.086
				c0.307,0.675,0.552,1.411,0.798,2.148c0.736,2.147,1.166,4.295,1.411,6.565v0.061C173.694,42.457,173.755,43.255,173.755,44.052z
				"/>
		</g>
		<path style="opacity:0.08;fill:#040000;" d="M173.755,44.052v134.979c0,0.983-0.061,1.964-0.123,2.946
			c-0.122,0.982-0.245,1.902-0.43,2.822c-0.122,1.105-0.245,2.147-0.491,3.129c0,0.429-0.061,0.798-0.246,1.166
			c-0.368,2.147-0.982,4.11-1.718,5.951c-0.552,1.35-1.166,2.699-1.902,3.987c-1.35,2.516-2.945,4.786-4.847,6.872
			c-17.486,19.817-53.992,23.866-60.372,45.463c-0.982,3.313-1.718,7.363-2.209,11.903c-0.307,2.454-0.552,5.031-0.737,7.731
			c-0.061,1.227-0.184,2.577-0.245,3.865c-0.675,13.621-0.307,29.082-0.061,41.046c0.061,1.35,0.123,2.639,0.123,3.865
			c0.061,0.307,0.061,0.613,0.061,0.859v0.798h17.118V482.98c0,0.737-0.061,1.472-0.123,2.148
			c-0.491,4.846-2.577,9.142-5.767,12.455c-0.429,0.429-0.797,0.858-1.288,1.227c-0.491,0.49-1.043,0.858-1.595,1.288
			c-0.552,0.43-1.104,0.798-1.718,1.165c-0.613,0.368-1.288,0.737-1.963,1.043c-0.246,0.123-0.429,0.184-0.675,0.307
			c-0.49,0.184-0.981,0.429-1.534,0.552c-0.061,0.061-0.184,0.061-0.307,0.123c-0.123,0.061-0.245,0.061-0.368,0.123
			c-0.307,0.061-0.675,0.184-0.981,0.246c0,0-0.062,0-0.062,0.061h-0.123c-2.209,2.576-4.479,4.479-6.687,5.828
			c-0.246,0.123-0.491,0.307-0.736,0.429c-1.227,0.675-2.393,1.166-3.559,1.472c-1.166,0.307-2.27,0.491-3.313,0.491V14.787h57.55
			c0.859,0,1.718,0.061,2.516,0.122c0.122,0,0.245,0,0.368,0.061c0.245,0,0.491,0,0.675,0.061c0.061,0,0.123,0,0.123,0
			c1.043,0.123,2.086,0.307,3.129,0.552c0.307,0.061,0.552,0.122,0.798,0.245c0.982,0.245,1.902,0.552,2.822,0.92
			c1.043,0.368,2.086,0.859,3.068,1.35c0.061,0.061,0.123,0.061,0.184,0.123c2.454,1.288,4.663,2.883,6.626,4.785
			c0.736,0.675,1.411,1.411,2.025,2.209c0.614,0.737,1.227,1.473,1.718,2.209c0.368,0.491,0.736,1.043,1.043,1.595
			c0.368,0.552,0.675,1.166,0.982,1.779c0.368,0.675,0.675,1.35,0.982,2.086c0.307,0.675,0.552,1.411,0.798,2.148
			c0.736,2.147,1.166,4.295,1.411,6.565v0.061C173.694,42.457,173.755,43.255,173.755,44.052z"/>
	</g>
	<g>
		<g>
			<path style="fill:#E7E0DB;" d="M361.744,79.392c0,0-10.492,99.394-10.921,101.295c-3.927,40.494-52.764,39.451-60.986,67.367
				c-0.184,0.614-0.368,1.228-0.491,1.964c-0.184,0.614-0.307,1.165-0.429,1.841c-0.184,0.675-0.246,1.35-0.368,2.086
				c-0.184,0.736-0.307,1.472-0.43,2.27c-2.086,13.498-1.963,32.764-1.718,48.776c0,1.534,0.061,3.006,0.123,4.479
				c0.061,2.761,0.122,5.461,0.184,7.915c0,0.553,0.061,1.105,0.123,1.657l-0.061,0.061c0.061,2.331,0.123,4.479,0.123,6.381v1.473
				c0,7.608,0.123,14.479,0.43,20.676c2.515,53.868,14.663,62.581,14.173,103.75c-0.246,27.302-6.688,43.5-13.989,52.212
				c-0.061,0-0.061,0.061-0.061,0.061c-1.473,1.779-3.006,3.19-4.479,4.294c-0.798,0.613-1.595,1.165-2.393,1.595
				c0,0,0,0-0.061,0.061c-0.859,0.552-1.779,0.981-2.638,1.35c-0.675,0.246-1.35,0.491-2.025,0.613
				c-0.982,0.246-1.963,0.368-2.945,0.368c0,0.061-0.061,0.061-0.184,0.061c-2.945,0-6.565-1.227-10.185-4.049
				c-1.595-1.165-3.068-2.577-4.54-4.417c-4.233-4.97-8.16-12.516-10.798-23.253c-1.902-7.853-3.068-17.302-3.252-28.836
				c-0.43-41.23,11.719-49.943,14.234-103.75v-0.061c0.307-6.258,0.43-13.069,0.43-20.676c0-0.491,0-0.982,0.061-1.473
				c-0.061-1.902,0-4.111,0.061-6.381c0.368-19.94,1.718-54.666-3.129-71.049c-8.528-28.959-61.17-26.75-61.231-71.846
				l-10.307-96.817C184.062,35.708,229.219,0,272.903,0c13.314,0,26.751,3.313,39.021,9.203c19.694,9.326,36.322,25.278,44.42,44.42
				C359.842,61.722,361.744,70.373,361.744,79.392z"/>
			<g>
				<path style="fill:#FCF9F8;" d="M206.194,85.053c-1.647,0-3.318-0.346-4.912-1.077c-5.922-2.716-8.521-9.72-5.804-15.641
					c15.451-33.675,40.278-53.391,69.911-55.514c6.511-0.45,12.145,4.425,12.61,10.924c0.465,6.499-4.426,12.145-10.924,12.61
					c-27.859,1.996-43.38,27.057-50.151,41.818C214.939,82.502,210.662,85.053,206.194,85.053z"/>
			</g>
			<path style="fill:#454342;" d="M304.071,319.103v163.509c0,5.951-2.454,11.35-6.381,15.277c-0.675,0.675-1.411,1.288-2.209,1.84
				c-0.675,0.553-1.288,1.043-2.025,1.411c-0.246,0.184-0.552,0.307-0.798,0.43c-0.736,0.43-1.534,0.798-2.393,1.165
				c-0.92,0.307-1.84,0.614-2.761,0.86c-0.061,0-0.061,0.061-0.061,0.061c-0.061,0-0.061,0-0.061,0
				c-1.657,0.368-3.252,0.551-4.97,0.551h-19.02c-1.841,0-3.681-0.245-5.399-0.674c-9.326-2.394-16.259-10.921-16.259-20.922
				V319.103H304.071z"/>
			<rect x="241.735" y="325.484" style="fill:#BFBDA3;" width="62.336" height="22.149"/>
			<circle style="fill:#FFFFFF;" cx="272.902" cy="473.927" r="13.195"/>
		</g>
		<path style="opacity:0.07;fill:#040000;" d="M361.744,79.392c0,0-10.492,99.394-10.921,101.295
			c-3.927,40.494-52.764,39.451-60.986,67.367c-0.184,0.614-0.368,1.228-0.491,1.964c-0.184,0.614-0.307,1.165-0.429,1.841
			c-0.184,0.675-0.246,1.35-0.368,2.086c-0.184,0.736-0.307,1.472-0.43,2.27c-2.086,13.498-1.963,32.764-1.718,48.776
			c0,1.534,0.061,3.006,0.123,4.479c0.061,2.761,0.122,5.461,0.184,7.915c0,0.553,0.061,1.105,0.123,1.657l-0.061,0.061h17.302
			v163.509c0,5.951-2.454,11.35-6.381,15.277c-0.675,0.675-1.411,1.288-2.209,1.84c-0.675,0.553-1.288,1.043-2.025,1.411
			c-0.246,0.184-0.552,0.307-0.798,0.43c-0.736,0.43-1.534,0.798-2.393,1.165c-0.92,0.307-1.84,0.614-2.761,0.86
			c-0.061,0-0.061,0.061-0.061,0.061c-1.473,1.779-3.006,3.19-4.479,4.294c-0.798,0.613-1.595,1.165-2.393,1.595
			c0,0,0,0-0.061,0.061c-0.859,0.552-1.779,0.981-2.638,1.35c-0.675,0.246-1.35,0.491-2.025,0.613
			c-0.982,0.246-1.963,0.368-2.945,0.368V0c13.314,0,26.751,3.313,39.021,9.203c19.694,9.326,36.322,25.278,44.42,44.42
			C359.842,61.722,361.744,70.373,361.744,79.392z"/>
	</g>
</g>
</svg>
